HIERARCHY
ROOT Hips
{
  OFFSET 0 0 0
  CHANNELS 6 Xposition Yposition Zposition Zrotation Yrotation Xrotation
  JOINT LeftThigh
  {
    OFFSET 8.409438 0 -5.917753
    CHANNELS 3 Zrotation Yrotation Xrotation
    JOINT LeftLeg
    {
      OFFSET 0 0 -42.358652
      CHANNELS 3 Zrotation Yrotation Xrotation
      JOINT LeftFoot
      {
        OFFSET 0 0 -39.357303
        CHANNELS 3 Zrotation Yrotation Xrotation
      }
    }
  }
  JOINT RightThigh
  {
    OFFSET -8.409438 0 -5.917753
    CHANNELS 3 Zrotation Yrotation Xrotation
    JOINT RightLeg
    {
      OFFSET 0 0 -42.358652
      CHANNELS 3 Zrotation Yrotation Xrotation
      JOINT RightFoot
      {
        OFFSET 0 0 -39.357303
        CHANNELS 3 Zrotation Yrotation Xrotation
      }
    }
  }
  JOINT SpineLow
  {
    OFFSET 0 0 4.719101
    CHANNELS 3 Zrotation Yrotation Xrotation
    JOINT SpineMid
    {
      OFFSET 0 0 12.899191
      CHANNELS 3 Zrotation Yrotation Xrotation
      JOINT Chest
      {
        OFFSET 0 0 12.899191
        CHANNELS 3 Zrotation Yrotation Xrotation
        JOINT LeftShoulder
        {
          OFFSET 7.550562 1.41573 9.438202
          CHANNELS 3 Zrotation Yrotation Xrotation
          JOINT LeftArm
          {
            OFFSET 9.155056 0 4.247191
            CHANNELS 3 Zrotation Yrotation Xrotation
            JOINT LeftForearm
            {
              OFFSET 0 0 25.771955
              CHANNELS 3 Zrotation Yrotation Xrotation
              JOINT LeftHand
              {
                OFFSET 0 0 25.197169
                CHANNELS 3 Zrotation Yrotation Xrotation
              }
            }
          }
        }
        JOINT RightShoulder
        {
          OFFSET -7.550562 1.41573 9.438202
          CHANNELS 3 Zrotation Yrotation Xrotation
          JOINT RightArm
          {
            OFFSET -9.155056 0 4.247191
            CHANNELS 3 Zrotation Yrotation Xrotation
            JOINT RightForearm
            {
              OFFSET 0 0 -25.771955
              CHANNELS 3 Zrotation Yrotation Xrotation
              JOINT RightHand
              {
                OFFSET 0 0 -25.197169
                CHANNELS 3 Zrotation Yrotation Xrotation
              }
            }
          }
        }
        JOINT Neck
        {
          OFFSET 0 0 15.101124
          CHANNELS 3 Zrotation Yrotation Xrotation
          JOINT Head
          {
            OFFSET 0 0 11.325843
            CHANNELS 3 Zrotation Yrotation Xrotation
            End Site
            {
              OFFSET 0 0 14.157303
            }
          }
        }
      }
    }
  }
}
MOTION
Frames: 13
Frame Time: 0.0
0.0  89.887642  0.0  3.118697  12.043594  -102.533813  0.127262  -12.859604  -20.686215  -2.281719  22.876403  49.274071  -4.707054  0.27702  1.482415  -4.768414  -1.538581  -24.082932  23.905309  14.006488  110.057802  3.895101  6.498413  1.506267  -0.639899  0.522926  2.320482  -1.697365  1.489105  6.329441  -1.697365  1.489105  6.329441  -10.518691  17.081651  3.545343  139.634961  36.347477  -157.876539  -14.78281  9.515276  92.116114  50.534341  -12.795015  59.047078  11.90463  -1.301855  20.506952  15.050313  63.983339  -42.974957  -23.95109  -5.513612  -64.474466  80.769734  12.154312  -4.975435  -19.538687  -4.57328  2.47931  -14.627943  -3.513533  1.714002  
0.0  89.887642  0.0  2.844884  11.360158  -104.120274  -0.119565  -13.116207  -19.044635  -2.582467  22.621678  49.231414  -4.602771  0.30628  1.557623  -3.03372  -5.198939  -28.198315  26.055791  14.15771  113.11276  3.145933  6.701007  1.49155  -1.094045  0.685145  2.806424  -2.907193  1.996294  7.640402  -2.907193  1.996294  7.640402  -10.41695  16.241948  1.875119  137.872933  34.741005  -158.390497  -14.370375  9.323184  92.284739  51.86929  -11.919019  59.047931  13.480151  -1.621038  19.16489  18.809753  65.024983  -40.416999  -24.374495  -4.863555  -64.826269  81.130602  11.846677  -4.26015  -17.428494  -4.993185  1.785512  -13.048604  -3.799481  1.196658  
0.0  89.887642  0.0  2.879933  10.521131  -105.584769  -0.199537  -13.198054  -17.454263  -2.648962  22.406345  49.334327  -4.428891  0.294904  1.604896  0.632036  -7.885528  -32.947382  25.649212  13.329935  114.904765  2.30512  7.015677  1.213884  -1.42782  1.000924  3.320236  -3.759286  2.924758  9.01817  -3.759285  2.924758  9.01817  -10.764734  14.574458  0.064305  136.274977  33.024236  -158.825493  -14.993843  10.102484  92.336424  53.408584  -9.301371  60.457422  14.51418  -2.654467  17.293409  22.90794  65.970023  -37.679072  -24.764173  -3.594626  -65.041317  81.307924  11.694298  -3.925578  -15.513007  -5.825805  1.076323  -11.614458  -4.400019  0.658659  
0.0  89.887642  0.0  2.964509  9.347695  -107.34385  -0.228758  -13.31823  -15.590886  -2.161661  22.084452  49.626121  -4.079738  0.268646  1.753901  5.577232  -9.56966  -38.165112  24.034698  12.272398  115.719055  2.589482  7.102883  0.687208  -1.713522  1.228958  3.742877  -4.484895  3.612992  10.146998  -4.484895  3.612992  10.146998  -10.763107  13.914897  -0.845857  135.16252  31.645439  -158.946367  -15.776446  10.698941  92.03805  53.645049  -5.619798  62.366433  15.385724  -3.33348  16.210737  27.358751  66.766949  -34.585892  -25.236688  -2.113252  -65.211825  81.080491  11.637624  -4.096098  -13.609602  -6.089351  0.561983  -10.191957  -4.582204  0.285159  
0.0  89.887642  0.0  2.652882  8.196688  -109.287742  -0.306586  -13.80432  -13.585  -1.40797  21.626238  50.041979  -4.130778  0.146248  1.745384  10.621475  -11.05185  -43.296451  22.360769  11.623139  115.068184  3.61305  6.814008  -0.002482  -1.992614  1.152901  3.922054  -5.247759  3.462078  10.626021  -5.247758  3.462078  10.626021  -10.623284  15.273226  -0.159905  134.794624  30.862557  -158.796208  -16.459554  11.300394  91.549206  55.061731  -4.438193  63.297797  15.954329  -3.067453  17.0609  31.877315  67.452005  -31.134914  -25.094371  -1.248887  -65.786156  80.984218  11.510123  -4.197482  -12.004835  -5.185971  0.5765  -8.992573  -3.902579  0.330091  
0.0  89.887642  0.0  1.829558  6.715809  -111.092115  0.353598  -14.856551  -11.773672  -0.843319  21.031544  50.448817  -4.33496  -0.007114  1.689703  15.368008  -12.754539  -48.342121  21.376487  11.926071  113.07904  4.857765  6.341873  -1.017186  -2.172693  0.854684  3.948962  -5.784166  2.680981  10.712631  -5.784166  2.680981  10.712631  -10.761874  17.656054  1.142366  135.242247  30.742444  -158.678535  -16.726557  11.541198  91.606571  57.119597  -4.884309  63.632229  15.890828  -2.201182  19.097177  35.733816  67.922366  -28.312675  -24.689099  -0.69479  -66.520174  81.24564  11.393747  -4.429674  -10.766606  -3.733534  0.914591  -8.066524  -2.817301  0.620061  
0.0  89.887642  0.0  0.753321  4.897845  -112.317455  2.250703  -16.225429  -10.624288  -1.021079  20.429932  50.592809  -4.761721  -0.218069  1.590679  20.140437  -14.07614  -53.646035  20.757188  13.370873  109.713064  6.127371  5.558134  -1.991156  -2.266721  0.567828  3.997941  -6.084236  1.919529  10.866484  -6.084236  1.919529  10.866483  -10.992691  19.434948  1.924628  136.030352  31.018151  -158.366594  -16.487856  11.148382  91.687328  58.833522  -5.766475  63.797594  15.748216  -1.695257  20.503293  39.160687  68.222507  -25.90245  -24.237089  -0.156939  -67.311324  81.869973  11.185138  -4.667401  -9.6107  -2.75571  1.069051  -7.201838  -2.084209  0.758485  
0.0  89.887642  0.0  -0.424583  3.038629  -113.148935  5.327001  -17.762419  -10.009936  -2.204173  19.873468  50.455447  -5.219746  -0.4377  1.46371  25.268373  -13.997811  -59.405891  19.166674  15.611886  105.138389  7.526498  4.437943  -2.755119  -2.330507  0.276082  4.074803  -6.303565  1.14303  11.100558  -6.303565  1.14303  11.100558  -11.22815  20.846909  2.23729  136.751533  31.397605  -157.893687  -16.092084  10.651852  91.768186  59.648588  -6.037951  64.024536  15.528569  -1.128967  21.623293  40.449216  68.311381  -25.508865  -23.569718  0.566  -68.016535  82.636998  10.90196  -5.123038  -8.570568  -1.992795  1.010066  -6.424005  -1.509117  0.729684  
0.0  89.887642  0.0  -1.716517  2.411229  -114.216503  7.847313  -19.034728  -9.260928  -4.563375  19.692277  49.690493  -5.396423  -0.543728  1.448135  28.111718  -13.38509  -63.759768  17.078113  18.241172  98.740109  9.149159  3.38173  -3.504975  -2.520632  0.024108  4.11717  -6.862971  0.493498  11.237476  -6.862971  0.493498  11.237475  -11.388223  22.126122  3.115739  137.234975  31.755362  -157.528148  -15.818373  10.44486  91.978133  59.640997  -5.432921  64.591962  14.969829  -0.713547  23.294878  42.355707  68.563115  -24.521737  -23.377299  1.293086  -68.750164  83.292506  10.496805  -5.611462  -7.82129  -1.304647  1.297208  -5.862977  -0.995285  0.95635  
0.0  89.887642  0.0  -3.047146  2.437415  -115.289798  9.885206  -20.142155  -8.512518  -7.298337  19.55098  48.572787  -5.27972  -0.582627  1.57221  29.657848  -12.566239  -66.452719  13.793954  20.649525  89.603137  9.669649  2.475449  -3.850522  -2.692929  -0.159236  4.125924  -7.363356  0.024882  11.279439  -7.363356  0.024882  11.279438  -11.800406  23.014253  4.43229  137.351557  32.080881  -157.271738  -15.552557  10.877934  91.90973  59.860349  -4.654747  65.37431  13.833621  -0.657284  25.188166  43.808725  68.791425  -23.821607  -23.298476  1.793147  -69.489926  84.836311  9.106953  -3.309891  -7.545659  -0.907177  1.788684  -5.656529  -0.702602  1.330523  
0.0  89.887642  0.0  -4.137389  2.855121  -116.160216  11.681329  -20.8196  -7.873759  -10.199407  19.29329  47.269648  -5.260038  -0.68356  1.638867  29.372337  -12.215958  -68.437992  11.07066  21.696844  78.91664  8.936391  1.731199  -3.820413  -2.800739  -0.290122  4.046685  -7.679434  -0.321984  11.077816  -7.679434  -0.321984  11.077816  -12.540719  23.973579  6.180646  137.133615  32.509653  -157.184153  -15.728073  11.868814  91.687138  60.653249  -3.808201  66.415136  12.186923  -0.790349  27.277728  45.272392  68.961279  -22.701532  -23.124714  1.661683  -70.415231  84.738134  8.425128  -4.122811  -7.702382  -0.641892  2.483872  -5.774231  -0.512832  1.855143  
0.0  89.887642  0.0  -4.694389  3.494981  -116.7756  12.944792  -20.767121  -7.335893  -12.799612  18.944529  45.955881  -5.032753  -0.746777  1.798635  27.397265  -12.039454  -70.241105  9.391273  20.550321  67.506206  7.227017  0.785007  -3.891056  -2.836121  -0.306685  3.999582  -7.778604  -0.366665  10.951225  -7.778604  -0.366665  10.951225  -13.72629  24.696339  7.406206  136.666383  33.074599  -157.371595  -15.638697  12.527057  91.607206  61.234546  -3.317598  66.737832  10.357818  -1.036254  28.78015  46.445336  68.985135  -21.484002  -22.934969  0.872612  -71.511868  84.619784  7.607453  -5.183291  -8.12161  -0.675558  2.884956  -6.08811  -0.545138  2.155165  
0.0  89.887642  0.0  -4.797539  4.617668  -117.223802  12.91667  -20.038282  -6.678964  -14.245454  18.332406  45.039137  -4.964746  -0.810962  1.929379  25.226739  -12.161925  -68.576686  7.463865  19.105721  51.975142  5.032069  -0.07299  -3.780667  -3.044841  -0.224546  4.056736  -8.333468  -0.101523  11.096729  -8.333468  -0.101523  11.096729  -14.388124  25.421022  7.582298  135.985223  33.629778  -157.841526  -15.074584  12.937114  91.357548  61.669961  -3.492582  66.456502  9.5445  -0.902107  29.335474  47.424794  68.613536  -20.297088  -22.42012  -0.348774  -72.852841  84.771828  6.58163  -6.091412  -8.054828  -0.853808  2.823498  -6.037219  -0.677729  2.106764  
